<svg id="Layer_1" data-name="Layer 1" xmlns="http://www.w3.org/2000/svg" viewBox="0 0 430.11 204.57"><defs><style>.cls-1{fill:#d9ebf4;}.cls-2{fill:#f7d9d9;}.cls-3{fill:#c6ccce;}</style></defs><path class="cls-1" d="M884.92,199.33a48.06,48.06,0,0,1,26.9,7.63q11.05,7.28,11,18.07a15.47,15.47,0,0,1-5.14,12.08,16.54,16.54,0,0,1-11.57,4.37q-7.11,0-10.7-5.14c-.75-1.08-1.83-3.85-3.26-8.31q-2.31-7.18-8.82-7.19a9.74,9.74,0,0,0-7.93,4.11,15.92,15.92,0,0,0-3.21,10.11,26.11,26.11,0,0,0,7.37,18.24,19.72,19.72,0,0,0,15.08,6.43,29.92,29.92,0,0,0,7.19-.73,43.57,43.57,0,0,0,7.63-3,5.93,5.93,0,0,1,2.65-.59,6.51,6.51,0,0,1,5.14,2.74,9.84,9.84,0,0,1,2.23,6.42q0,3.86-3.17,8.1a29.72,29.72,0,0,1-8.31,7.41Q896.91,287,881.75,287q-17.65,0-30.07-10.28-15.93-13-15.93-33.15,0-19.36,14.82-32Q864.7,199.33,884.92,199.33Z" transform="translate(-731.66 -87.29)"/><path class="cls-2" d="M1001.85,199.33a48.06,48.06,0,0,1,26.9,7.63q11.05,7.28,11,18.07a15.47,15.47,0,0,1-5.14,12.08,16.54,16.54,0,0,1-11.57,4.37q-7.11,0-10.7-5.14c-.75-1.08-1.83-3.85-3.26-8.31q-2.31-7.18-8.82-7.19a9.74,9.74,0,0,0-7.93,4.11,15.92,15.92,0,0,0-3.21,10.11,26.11,26.11,0,0,0,7.37,18.24,19.73,19.73,0,0,0,15.08,6.43,29.92,29.92,0,0,0,7.19-.73,43.57,43.57,0,0,0,7.63-3,5.93,5.93,0,0,1,2.65-.59,6.5,6.5,0,0,1,5.14,2.74,9.84,9.84,0,0,1,2.23,6.42q0,3.86-3.17,8.1a29.86,29.86,0,0,1-8.31,7.41q-11.15,6.86-26.3,6.85-17.64,0-30.07-10.28-15.93-13-15.93-33.15,0-19.36,14.82-32Q981.63,199.33,1001.85,199.33Z" transform="translate(-731.66 -87.29)"/><path class="cls-3" d="M923.06,183.25h0a3.09,3.09,0,0,1-3.08-3.08V98.35c0-1.69,1.39-10.95,3.08-10.95h0c1.69,0,3.07,9.26,3.07,10.95v81.82A3.09,3.09,0,0,1,923.06,183.25Z" transform="translate(-731.66 -87.29)"/><path class="cls-1" d="M922.08,291.86" transform="translate(-731.66 -87.29)"/><path class="cls-1" d="M931.84,170.15V170a8.4,8.4,0,0,0-8.42-8.34h-.73a8.4,8.4,0,0,0-8.42,8.34v.13l-3.7,110.2c0,6.33,6.63,11.51,13,11.51H924a11.54,11.54,0,0,0,11.51-11.51Z" transform="translate(-731.66 -87.29)"/><ellipse class="cls-3" cx="920.18" cy="90.46" rx="4.37" ry="1.79" transform="translate(-566.34 537.11) rotate(-40.89)"/><path class="cls-3" d="M1037,183.25h0a3.09,3.09,0,0,1-3.07-3.08V98.35c0-1.69,1.38-10.95,3.07-10.95h0c1.69,0,3.08,9.26,3.08,10.95v81.82A3.09,3.09,0,0,1,1037,183.25Z" transform="translate(-731.66 -87.29)"/><path class="cls-1" d="M1036,291.86" transform="translate(-731.66 -87.29)"/><path class="cls-2" d="M1045.75,170.15V170a8.4,8.4,0,0,0-8.42-8.34h-.74a8.39,8.39,0,0,0-8.41,8.34v.13l-3.71,110.2c0,6.33,6.64,11.51,13,11.51h.5a11.54,11.54,0,0,0,11.51-11.51Z" transform="translate(-731.66 -87.29)"/><ellipse class="cls-3" cx="1034.08" cy="90.46" rx="4.37" ry="1.79" transform="translate(-538.54 611.67) rotate(-40.89)"/><path class="cls-3" d="M811.15,246.28H770.89c-1.77,0-2.66.77-2.66,2.31,0,3.72,2,7.21,6,10.5a20.2,20.2,0,0,0,13,4.92,30.81,30.81,0,0,0,9.13-1.58,29.82,29.82,0,0,0,8.26-3.9q2.91-2.05,4.63-2.06c1.48,0,2.94.92,4.37,2.74a9.16,9.16,0,0,1,2.14,5.66q0,6.17-7.71,11.91A51.09,51.09,0,0,1,776.63,287q-18,0-30.15-10.45a42.77,42.77,0,0,1-9.77-12.42,43.47,43.47,0,0,1-5.05-20.39,41.63,41.63,0,0,1,8.73-25.87A45.87,45.87,0,0,1,759.58,203a48.19,48.19,0,0,1,18.93-3.69q16.28,0,27.67,9.26a37.12,37.12,0,0,1,9.26,11,28.73,28.73,0,0,1,4,14,16.45,16.45,0,0,1-2.31,9.12A6.93,6.93,0,0,1,811.15,246.28Zm-38-16h8.65q5.47,0,5.48-5a10.74,10.74,0,0,0-2.65-7.54,9,9,0,0,0-6.94-2.92,8.82,8.82,0,0,0-7.54,3.77,12,12,0,0,0-2.57,7.11c0,1.72.41,2.92,1.24,3.6S771.06,230.26,773.12,230.26Z" transform="translate(-731.66 -87.29)"/><path class="cls-3" d="M1116.79,201.5q14.91,0,25.27,7.54a22.22,22.22,0,0,1,7.67,9.21q2.19,5.17,2.18,14.26l-.17,12.76q0,13.29,1.89,17.22a5.67,5.67,0,0,0,1.8,2.4,11.62,11.62,0,0,0,3.59.94q2.74.44,2.74,3.6c0,2.74-1.09,5.6-3.29,8.57a27.36,27.36,0,0,1-8.53,7.45,26.2,26.2,0,0,1-13.45,3.77q-9,0-14.22-6.17c-1.2-1.48-2.31-2.23-3.34-2.23s-2.65.72-4.54,2.15a32.19,32.19,0,0,1-19.44,6.25q-11.23,0-18.16-4.8a23.44,23.44,0,0,1-9.86-18.93q0-8.91,7.2-15.76,11.22-10.8,33.58-10.88c3.31,0,5.4-.33,6.25-1s1.29-2.18,1.29-4.58q0-9.08-1.89-13.15a6.37,6.37,0,0,0-6.16-4.07,7.39,7.39,0,0,0-4.59,1.54,29.06,29.06,0,0,0-5,5.66q-7.62,10.88-15.93,10.88a9.59,9.59,0,0,1-6.85-2.49,8.45,8.45,0,0,1-2.66-6.51,13.13,13.13,0,0,1,3.3-8.22,29.26,29.26,0,0,1,9-7.2A68.24,68.24,0,0,1,1116.79,201.5Zm-5.74,49.6a8.57,8.57,0,0,0-6.55,3.08,11.59,11.59,0,0,0-.82,14,6.33,6.33,0,0,0,5.23,2.53q6.85,0,6.85-11.57,0-4.71-1-6.34C1114.12,251.73,1112.88,251.16,1111.05,251.1Z" transform="translate(-731.66 -87.29)"/></svg>